<svg xmlns="http://www.w3.org/2000/svg" version="1.1" xmlns:xlink="http://www.w3.org/1999/xlink" xmlns:svgjs="http://svgjs.dev/svgjs" width="1500" height="1500" viewBox="0 0 1500 1500"><rect width="1500" height="1500" fill="#ffffff"></rect><g transform="matrix(0.6666666666666666,0,0,0.6666666666666666,249.39393939393938,615.8477382885784)"><svg viewBox="0 0 396 106" data-background-color="#001529" preserveAspectRatio="xMidYMid meet" height="401" width="1500" xmlns="http://www.w3.org/2000/svg" xmlns:xlink="http://www.w3.org/1999/xlink"><g id="tight-bounds" transform="matrix(1,0,0,1,0.2400000000000091,0.19254267360611266)"><svg viewBox="0 0 395.52 105.61491465278777" height="105.61491465278777" width="395.52"><g><svg viewBox="0 0 603.7323020234202 161.2134292863436" height="105.61491465278777" width="395.52"><g transform="matrix(1,0,0,1,0,22.280582484581494)"><svg viewBox="0 0 395.52 116.65226431718061" height="116.65226431718061" width="395.52"><g id="textblocktransform"><svg viewBox="0 0 395.52 116.65226431718061" height="116.65226431718061" width="395.52" id="textblock"><g><svg viewBox="0 0 395.52 116.65226431718061" height="116.65226431718061" width="395.52"><g transform="matrix(1,0,0,1,0,0)"><svg width="395.52" viewBox="1.23 -33.48 113.49 33.48" height="116.65226431718061" data-palette-color="#cccccc"><path d="M27.28-31.95L17.57 0 10.95 0 1.23-31.95 5.58-31.95 13.95-3.15 14.55-3.15 22.95-31.95 27.28-31.95ZM35.92-24.4L35.92 0 31.87 0 31.87-24.4 35.92-24.4ZM33.9-28.4L33.9-28.4Q32.65-28.4 32.03-29.06 31.42-29.73 31.42-30.88L31.42-30.88 31.42-31Q31.42-32.18 32.03-32.83 32.65-33.48 33.9-33.48L33.9-33.48Q35.15-33.48 35.77-32.83 36.4-32.18 36.4-31L36.4-31 36.4-30.88Q36.4-29.7 35.77-29.05 35.15-28.4 33.9-28.4ZM59.77-21.38L46.2-3.35 59.87-3.35 59.87 0 41.34 0 41.34-3.05 54.92-21.08 41.4-21.08 41.4-24.4 59.77-24.4 59.77-21.38ZM69.77-31.95L69.77 0 65.67 0 65.67-31.95 69.77-31.95ZM85.59-3.48L85.59 0 66.89 0 66.89-3.48 85.59-3.48ZM85.07-18.03L85.07-14.58 68.02-14.58 68.02-18.03 85.07-18.03ZM85.44-31.95L85.44-28.48 66.87-28.48 66.87-31.95 85.44-31.95ZM113.64-7.03L114.72 0 110.44 0 109.54-6.55Q109.29-8.4 108.69-9.76 108.09-11.13 106.85-11.9 105.62-12.68 103.34-12.68L103.34-12.68 94.67-12.7 94.67-15.98 103.94-16Q107.22-16 108.62-17.61 110.02-19.23 110.02-22L110.02-22 110.02-22.75Q110.02-25.5 108.59-27.01 107.17-28.53 103.84-28.53L103.84-28.53 94.54-28.53 94.54-31.95 104.39-31.95Q109.54-31.95 111.88-29.69 114.22-27.43 114.22-23.45L114.22-23.45 114.22-22.6Q114.22-19.48 112.74-17.49 111.27-15.5 107.84-15.08L107.84-15.08 107.84-14.58 106.07-15.2Q108.84-15 110.35-13.99 111.87-12.98 112.57-11.23 113.27-9.47 113.64-7.03L113.64-7.03ZM95.92-13.3L95.92 0 91.82 0 91.82-31.95 95.89-31.95 95.89-14.88 95.92-13.3Z" opacity="1" transform="matrix(1,0,0,1,0,0)" fill="#000000" class="wordmark-text-0" data-fill-palette-color="primary" id="text-0"></path></svg></g></svg></g></svg></g></svg></g><g transform="matrix(1,0,0,1,423.0587999509427,0)"><svg viewBox="0 0 180.67350207247745 161.2134292863436" height="161.2134292863436" width="180.67350207247745"><g><svg xmlns="http://www.w3.org/2000/svg" xmlns:xlink="http://www.w3.org/1999/xlink" version="1.1" x="0" y="0" viewBox="5.169999291427199 15.184999999999995 89.4500007085728 79.8154748675324" enable-background="new 0 0 100 100" xml:space="preserve" height="161.2134292863436" width="180.67350207247745" class="icon-icon-0" data-fill-palette-color="accent" id="icon-0"><path d="M86.917 75.943C91.531 73.13 94.62 68.047 94.62 62.268 94.62 56.529 91.592 51.487 87.04 48.664V18.111A2.925 2.925 0 0 0 84.115 15.185H8.085A2.924 2.924 0 0 0 5.17 18.111V67.822A2.924 2.924 0 0 0 8.085 70.748H40.255L31.867 79.135C30.047 80.956 30.66 82.44 33.238 82.44H58.974C61.541 82.44 62.165 80.957 60.334 79.135L51.946 70.748H65.11C67.933 75.248 72.945 78.245 78.642 78.245 78.786 78.245 78.928 78.245 79.062 78.235L83.112 92.053A4.094 4.094 0 0 0 88.187 94.836C90.356 94.192 91.604 91.921 90.969 89.752zM62.666 62.269C62.666 63.159 62.738 64.039 62.881 64.897L11.01 65V21.14L81.19 21.036V46.485A16 16 0 0 0 78.643 46.28C69.826 46.28 62.666 53.451 62.666 62.269M83.266 72.098C82.274 72.569 81.2 72.886 80.075 73.039 79.604 73.101 79.124 73.131 78.643 73.131 76.086 73.131 73.723 72.241 71.872 70.748A10.8 10.8 0 0 1 68.098 64.896 11 11 0 0 1 67.781 62.268C67.781 56.273 72.65 51.394 78.644 51.394 79.524 51.394 80.373 51.497 81.191 51.702A10.83 10.83 0 0 1 87.042 55.385 10.8 10.8 0 0 1 89.507 62.269 10.84 10.84 0 0 1 86.275 69.992 11 11 0 0 1 83.266 72.098" fill="#000000" data-fill-palette-color="accent"></path><path d="M84.872 67.153A1.022 1.022 0 0 1 84.004 65.591 6.3 6.3 0 0 0 84.95 62.265 6.29 6.29 0 0 0 81.53 56.656 1.023 1.023 0 1 1 82.468 54.839 8.33 8.33 0 0 1 86.996 62.266 8.34 8.34 0 0 1 85.741 66.672C85.548 66.982 85.214 67.153 84.872 67.153" fill="#000000" data-fill-palette-color="accent"></path><path d="M25 57.5A2.5 2.5 0 0 1 22.5 55V44.5A2.5 2.5 0 1 1 27.5 44.5V55A2.5 2.5 0 0 1 25 57.5" fill="#000000" data-fill-palette-color="accent"></path><path d="M31.667 57.5A2.5 2.5 0 0 1 29.167 55V40A2.5 2.5 0 1 1 34.167 40V55A2.5 2.5 0 0 1 31.667 57.5" fill="#000000" data-fill-palette-color="accent"></path><path d="M58.417 57.5A2.5 2.5 0 0 1 55.917 55V50A2.5 2.5 0 1 1 60.917 50V55A2.5 2.5 0 0 1 58.417 57.5" fill="#000000" data-fill-palette-color="accent"></path><path d="M38.333 57.5A2.5 2.5 0 0 1 35.833 55V30A2.5 2.5 0 1 1 40.833 30V55A2.5 2.5 0 0 1 38.333 57.5" fill="#000000" data-fill-palette-color="accent"></path><path d="M45 57.5A2.5 2.5 0 0 1 42.5 55V40A2.5 2.5 0 1 1 47.5 40V55A2.5 2.5 0 0 1 45 57.5" fill="#000000" data-fill-palette-color="accent"></path><path d="M51.667 57.5A2.5 2.5 0 0 1 49.167 55V35A2.5 2.5 0 1 1 54.167 35V55A2.5 2.5 0 0 1 51.667 57.5" fill="#000000" data-fill-palette-color="accent"></path></svg></g></svg></g></svg></g><defs></defs></svg><rect width="395.52" height="105.61491465278777" fill="none" stroke="none" visibility="hidden"></rect></g></svg></g></svg>